<?xml version="1.0" encoding="UTF-8"?>
<svg width="80px" height="80px" viewBox="0 0 80 80" version="1.1" xmlns="http://www.w3.org/2000/svg" xmlns:xlink="http://www.w3.org/1999/xlink">
    <!-- Generator: Sketch 41.2 (35397) - http://www.bohemiancoding.com/sketch -->
    <title>icon</title>
    <desc>Created with Sketch.</desc>
    <defs>
        <polygon id="path-1" points="33 13.8970999 33 27.7940765 0 27.7940765 0 13.8970999 0 0.000123236391 33 0.000123236391 33 13.8970999"></polygon>
    </defs>
    <g id="Page-1" stroke="none" stroke-width="1" fill="none" fill-rule="evenodd">
        <g id="landing-page" transform="translate(-440.000000, -3391.000000)">
            <g id="When-you-enroll...Timeline" transform="translate(0.000000, 2728.000000)">
                <g id="1-Week-before" transform="translate(440.000000, 663.000000)">
                    <g id="icon">
                        <circle id="Oval-3" fill="#D66000" cx="40" cy="40" r="40"></circle>
                        <g id="Group-9" transform="translate(8.000000, 26.000000)">
                            <g id="Page-1" transform="translate(0.000000, 7.000000)" fill="#FFFFFF">
                                <path d="M11.3944954,8.640625 C11.2535413,8.640625 11.1123761,8.60825 10.9819725,8.5430625 L0,3.05375 L0,12.5923438 C0,13.3665 0.611082569,14 1.35784404,14 L21.642156,14 C22.3889174,14 23,13.3665 23,12.5923438 L23,2.83915625 L11.8133486,8.5395625 C11.6812569,8.6069375 11.5379817,8.640625 11.3944954,8.640625" id="Fill-1"></path>
                                <path d="M11.3904862,6.56142813 L21.6126147,1.35255313 L22.8316147,0.731740625 C22.6001376,0.296428125 22.1530092,2.18750001e-05 21.642156,2.18750001e-05 L1.35784404,2.18750001e-05 C0.779045872,2.18750001e-05 0.283385321,0.381084375 0.0888348624,0.912428125 L1.68849541,1.71195938 L11.3904862,6.56142813 Z" id="Fill-3"></path>
                            </g>
                            <g id="Page-1" transform="translate(31.000000, 0.000000)">
                                <mask id="mask-2" fill="white">
                                    <use xlink:href="#path-1"></use>
                                </mask>
                                <g id="Clip-2"></g>
                                <path d="M30.9878049,23.9623588 C30.9878049,24.4494765 30.7950366,24.8875941 30.4779146,25.2137118 C30.1591829,25.5381824 29.7305854,25.7350059 29.2549024,25.7354176 L3.74509756,25.7354176 C3.26941463,25.7350059 2.84081707,25.5381824 2.52208537,25.2137118 C2.20496341,24.8875941 2.01219512,24.4494765 2.01219512,23.9623588 L2.01219512,8.23541765 L30.9878049,8.23541765 L30.9878049,23.9623588 Z M6.1617439,4.89106471 C6.1617439,5.66518235 5.54802439,6.29353529 4.79103659,6.29353529 C4.03404878,6.29353529 3.42073171,5.66518235 3.42073171,4.89106471 C3.42073171,4.11694706 4.03404878,3.48859412 4.79103659,3.48859412 C5.54802439,3.48859412 6.1617439,4.11694706 6.1617439,4.89106471 L6.1617439,4.89106471 Z M10.3414756,4.89106471 C10.3414756,5.66518235 9.7277561,6.29353529 8.97076829,6.29353529 C8.21418293,6.29353529 7.60046341,5.66518235 7.60046341,4.89106471 C7.60046341,4.11694706 8.21418293,3.48859412 8.97076829,3.48859412 C9.7277561,3.48859412 10.3414756,4.11694706 10.3414756,4.89106471 L10.3414756,4.89106471 Z M14.6890244,4.89106471 C14.6890244,5.66518235 14.0757073,6.29353529 13.3187195,6.29353529 C12.5617317,6.29353529 11.9480122,5.66518235 11.9480122,4.89106471 C11.9480122,4.11694706 12.5617317,3.48859412 13.3187195,3.48859412 C14.0757073,3.48859412 14.6890244,4.11694706 14.6890244,4.89106471 L14.6890244,4.89106471 Z M31.900939,1.12465294 C31.2264512,0.4333 30.2855488,-0.000288235295 29.2549024,0.000123529411 L3.74509756,0.000123529411 C2.71445122,-0.000288235295 1.77354878,0.4333 1.09906098,1.12465294 C1.00167073,1.22388824 0.91152439,1.33094706 0.824597561,1.4413 L0.804878049,1.4413 L0.804878049,1.46847647 C0.304243902,2.11865294 0,2.94135882 0,3.83159412 L0,23.9623588 C0,25.0168882 0.423768293,25.9795941 1.09906098,26.6693 C1.77354878,27.3606529 2.71445122,27.7946529 3.74509756,27.7942412 L29.2549024,27.7942412 C30.2855488,27.7946529 31.2264512,27.3606529 31.900939,26.6693 C32.5762317,25.9795941 33,25.0168882 33,23.9623588 L33,3.83159412 C33,2.77747647 32.5762317,1.81435882 31.900939,1.12465294 L31.900939,1.12465294 Z" id="Fill-1" fill="#FFFFFF" mask="url(#mask-2)"></path>
                            </g>
                        </g>
                    </g>
                </g>
            </g>
        </g>
    </g>
</svg>