<?xml version="1.0" encoding="UTF-8"?>
<svg width="191px" height="111px" viewBox="0 0 191 111" version="1.1" xmlns="http://www.w3.org/2000/svg" xmlns:xlink="http://www.w3.org/1999/xlink">
    <!-- Generator: Sketch 41.2 (35397) - http://www.bohemiancoding.com/sketch -->
    <title>Icon3</title>
    <desc>Created with Sketch.</desc>
    <defs>
        <polygon id="path-1" points="35.3505649 110.943396 0 110.943396 0 0.394113208 35.3505649 0.394113208 70.7011298 0.394113208 70.7011298 110.943396"></polygon>
    </defs>
    <g id="Page-1" stroke="none" stroke-width="1" fill="none" fill-rule="evenodd">
        <g id="landing-page" transform="translate(-986.000000, -2235.000000)">
            <g id="See-how-it-worked" transform="translate(194.000000, 1824.000000)">
                <g id="Infographic3" transform="translate(731.000000, 309.000000)">
                    <g id="Icon3" transform="translate(61.000000, 101.000000)">
                        <g id="Group-3" transform="translate(0.000000, 0.662491)">
                            <mask id="mask-2" fill="white">
                                <use xlink:href="#path-1"></use>
                            </mask>
                            <g id="Clip-2"></g>
                            <path d="M66.3693343,30.2473962 C68.7520856,30.2473962 70.7011298,28.2947925 70.7011298,25.9100377 L70.7011298,4.7325283 C70.7011298,2.34671698 68.7520856,0.394113208 66.3693343,0.394113208 L4.3323232,0.394113208 C1.94957182,0.394113208 -0.000527624309,2.34671698 -0.000527624309,4.7325283 L-0.000527624309,25.9100377 C-0.000527624309,28.2947925 1.94957182,30.2473962 4.3323232,30.2473962 L31.1704613,30.2473962 C31.1567431,30.3784151 31.1293066,30.5062642 31.1293066,30.6415094 L31.1293066,106.716981 C31.1293066,109.051019 33.0192569,110.943396 35.3503011,110.943396 C37.6813453,110.943396 39.5712956,109.051019 39.5712956,106.716981 L39.5712956,30.6415094 C39.5712956,30.5062642 39.5449144,30.3784151 39.5311961,30.2473962 L66.3693343,30.2473962 Z" id="Fill-1" fill="#05A5AE" mask="url(#mask-2)"></path>
                        </g>
                        <path d="M164.265276,68.2851321 L136.891072,68.2851321 C135.740851,68.2851321 134.808011,67.3510943 134.808011,66.1993962 L134.808011,55.9165283 C134.808011,55.1103396 134.809066,54.0685283 135.727133,53.4926792 L151.164365,53.4926792 L151.528425,53.4863396 C153.69063,53.418717 156.383624,53.7177358 158.022425,56.4522264 C158.864514,57.8575094 159.947199,59.8544906 161.093199,61.9708679 C162.355276,64.3006792 163.506552,66.4001509 164.578685,68.2629434 C164.478436,68.2766792 164.375022,68.2851321 164.265276,68.2851321 L164.265276,68.2851321 Z M126.366022,66.1983396 C126.366022,67.3510943 125.433182,68.2851321 124.281906,68.2851321 L96.7177569,68.2851321 C96.3378674,68.2851321 96.0550608,68.0790943 95.8999392,67.8022642 C99.1965359,65.072 102.388663,62.4125283 103.970481,61.0547925 C110.806381,55.1885283 114.291867,53.4926792 119.506906,53.4926792 L125.451122,53.4926792 C126.364967,54.0695849 126.366022,55.109283 126.366022,55.9133585 L126.366022,66.1983396 Z M185.459945,69.3417358 L177.363022,69.3417358 C175.67568,69.3417358 174.099138,68.4975094 173.164188,67.0911698 L168.383912,59.9126038 C168.10005,59.3906415 167.829906,58.8919245 167.586144,58.4439245 C166.400044,56.2556981 165.280425,54.1889811 164.356028,52.6463396 C162.501956,49.5526038 158.747381,45.9295094 151.339536,46.0922264 L119.506906,46.0964528 C114.176845,46.0964528 110.119414,47.5027925 105.867818,50.2721509 C105.814,50.3059623 105.762293,50.3397736 105.708475,50.3746415 C105.548077,50.4792453 105.386624,50.5870189 105.226227,50.6969057 C104.884326,50.9187925 104.535039,51.1322264 104.205801,51.3794717 L83.3709724,67.2950943 L83.3699171,67.2961509 C82.6892818,67.9618113 81.8208122,68.4003019 80.8826961,68.5513962 L80.8542044,68.5556226 L58.2644972,72.8887547 L58.2655525,72.8908679 C55.5482873,73.3589434 53.5538674,75.7130566 53.5538674,78.4803019 L53.5538674,95.9871698 C53.5538674,98.7776604 55.8131547,101.039849 58.6000663,101.039849 L73.9665967,101.039849 C73.9665967,101.039849 74.6588398,101.039849 74.7601436,99.9832453 C74.7611989,99.9663396 74.7580331,99.9515472 74.7580331,99.9335849 C74.7580331,91.7913962 81.349116,85.1907925 89.4819171,85.1907925 C97.5419061,85.1907925 104.089724,91.6751698 104.203691,99.7180377 C104.205801,99.7898868 104.205801,99.8627925 104.205801,99.9335849 C104.205801,101.039849 105.656768,101.039849 105.656768,101.039849 L137.446133,101.039849 L143.149751,101.039849 C144.305249,101.039849 144.404442,99.9515472 144.404442,99.9335849 C144.404442,91.7913962 150.995525,85.1907925 159.128326,85.1907925 C167.260072,85.1907925 173.85221,91.7913962 173.85221,99.9335849 C173.85221,99.9515472 173.850099,99.9663396 173.850099,99.9832453 C173.850099,101.039849 174.907459,101.039849 174.907459,101.039849 L184.37726,101.039849 C187.889127,101.039849 190.736188,98.1891321 190.736188,94.6727547 L190.736188,74.6247547 C190.736188,70.4268679 188.926436,69.3417358 185.459945,69.3417358 L185.459945,69.3417358 Z" id="Fill-4" fill="#05A5AE"></path>
                        <path d="M89.4323204,88.3606038 C83.0216851,88.3606038 77.8245856,93.5643774 77.8245856,99.9832453 C77.8245856,106.402113 83.0216851,111.605887 89.4323204,111.605887 C95.8429558,111.605887 101.040055,106.402113 101.040055,99.9832453 C101.040055,93.5643774 95.8429558,88.3606038 89.4323204,88.3606038" id="Fill-6" fill="#05A5AE"></path>
                        <path d="M159.078729,88.3606038 C152.668094,88.3606038 147.470994,93.5643774 147.470994,99.9832453 C147.470994,106.402113 152.668094,111.605887 159.078729,111.605887 C165.489365,111.605887 170.686464,106.402113 170.686464,99.9832453 C170.686464,93.5643774 165.489365,88.3606038 159.078729,88.3606038" id="Fill-8" fill="#05A5AE"></path>
                    </g>
                </g>
            </g>
        </g>
    </g>
</svg>