<?xml version="1.0" encoding="UTF-8"?>
<svg width="122px" height="128px" viewBox="0 0 122 128" version="1.1" xmlns="http://www.w3.org/2000/svg" xmlns:xlink="http://www.w3.org/1999/xlink">
    <!-- Generator: Sketch 41.2 (35397) - http://www.bohemiancoding.com/sketch -->
    <title>Icon2</title>
    <desc>Created with Sketch.</desc>
    <defs>
        <polygon id="path-1" points="122 82.9997 122 -0.0003 7.31390056e-05 -0.0003 7.31390056e-05 82.9997"></polygon>
    </defs>
    <g id="Page-1" stroke="none" stroke-width="1" fill="none" fill-rule="evenodd">
        <g id="landing-page" transform="translate(-660.000000, -2214.000000)">
            <g id="See-how-it-worked" transform="translate(194.000000, 1824.000000)">
                <g id="Infographic2" transform="translate(367.000000, 309.000000)">
                    <g id="Icon2" transform="translate(99.000000, 80.000000)">
                        <g id="Group-3" transform="translate(31.000000, 0.210000)" fill="#63A619">
                            <path d="M3.1525,16.5283 C10.4985,14.0433 23.9545,14.9843 30.0005,17.0003 C42.0005,21.0003 53.0005,18.0003 59.3765,13.2423 C60.9955,12.0343 60.4055,9.5053 58.3875,9.4283 C44.2815,8.8903 34.6735,-0.7417 19.0005,1.0003 C7.8505,2.2393 2.8395,8.8493 0.6405,13.7023 C-0.1055,15.3473 1.4405,17.1073 3.1525,16.5283" id="Fill-1"></path>
                        </g>
                        <path d="M25.1921,29.6202 C25.1281,27.4582 23.3571,25.7392 21.1941,25.7392 C18.7821,25.7392 15.4391,25.7182 12.6101,25.6982 C10.5181,25.6842 8.7041,25.6732 7.7441,25.6732 C5.5971,25.6732 3.8321,27.3682 3.7471,29.5152 L3.3231,40.2102 L25.5061,40.2102 L25.1921,29.6202 Z" id="Fill-4" fill="#63A619"></path>
                        <g id="Group-8" transform="translate(0.000000, 45.210000)">
                            <mask id="mask-2" fill="white">
                                <use xlink:href="#path-1"></use>
                            </mask>
                            <g id="Clip-7"></g>
                            <path d="M110.0002,53.0947 C110.0002,53.5947 109.5952,53.9997 109.0952,53.9997 L88.3222,53.9997 C87.8222,53.9997 87.4172,53.5947 87.4172,53.0947 L87.4172,45.9057 C87.4172,45.4057 87.8222,44.9997 88.3222,44.9997 L109.0952,44.9997 C109.5952,44.9997 110.0002,45.4057 110.0002,45.9057 L110.0002,53.0947 Z M110.0002,68.0947 C110.0002,68.5947 109.5952,68.9997 109.0952,68.9997 L88.3222,68.9997 C87.8222,68.9997 87.4172,68.5947 87.4172,68.0947 L87.4172,60.9057 C87.4172,60.4057 87.8222,59.9997 88.3222,59.9997 L109.0952,59.9997 C109.5952,59.9997 110.0002,60.4057 110.0002,60.9057 L110.0002,68.0947 Z M80.2922,53.0947 C80.2922,53.5947 79.8872,53.9997 79.3872,53.9997 L58.6132,53.9997 C58.1132,53.9997 57.7082,53.5947 57.7082,53.0947 L57.7082,45.9057 C57.7082,45.4057 58.1132,44.9997 58.6132,44.9997 L79.3872,44.9997 C79.8872,44.9997 80.2922,45.4057 80.2922,45.9057 L80.2922,53.0947 Z M80.2922,68.0947 C80.2922,68.5947 79.8872,68.9997 79.3872,68.9997 L58.6132,68.9997 C58.1132,68.9997 57.7082,68.5947 57.7082,68.0947 L57.7082,60.9057 C57.7082,60.4057 58.1132,59.9997 58.6132,59.9997 L79.3872,59.9997 C79.8872,59.9997 80.2922,60.4057 80.2922,60.9057 L80.2922,68.0947 Z M50.5832,53.0947 C50.5832,53.5947 50.1782,53.9997 49.6782,53.9997 L28.9052,53.9997 C28.4052,53.9997 28.0002,53.5947 28.0002,53.0947 L28.0002,45.9057 C28.0002,45.4057 28.4052,44.9997 28.9052,44.9997 L49.6782,44.9997 C50.1782,44.9997 50.5832,45.4057 50.5832,45.9057 L50.5832,53.0947 Z M50.5832,68.0947 C50.5832,68.5947 50.1782,68.9997 49.6782,68.9997 L28.9052,68.9997 C28.4052,68.9997 28.0002,68.5947 28.0002,68.0947 L28.0002,60.9057 C28.0002,60.4057 28.4052,59.9997 28.9052,59.9997 L49.6782,59.9997 C50.1782,59.9997 50.5832,60.4057 50.5832,60.9057 L50.5832,68.0947 Z M118.0002,30.9997 L81.0002,30.9997 L81.0002,20.9997 C81.0002,19.6617 80.3322,18.4137 79.2182,17.6717 C78.1062,16.9297 76.6952,16.7917 75.4612,17.3087 L52.0002,27.0887 L52.0002,20.9997 C52.0002,19.6617 51.3322,18.4137 50.2182,17.6717 C49.1072,16.9297 47.6962,16.7917 46.4612,17.3087 L26.4172,25.6637 L25.6552,-0.0003 L3.1252,-0.0003 L0.0032,78.8417 C-0.0398,79.9297 0.3622,80.9877 1.1162,81.7717 C1.8702,82.5567 2.9122,82.9997 4.0002,82.9997 L14.0002,82.9997 L24.0002,82.9997 L118.0002,82.9997 C120.2092,82.9997 122.0002,81.2087 122.0002,78.9997 L122.0002,34.9997 C122.0002,32.7907 120.2092,30.9997 118.0002,30.9997 L118.0002,30.9997 Z" id="Fill-6" fill="#63A619" mask="url(#mask-2)"></path>
                        </g>
                    </g>
                </g>
            </g>
        </g>
    </g>
</svg>