<?xml version="1.0" encoding="UTF-8"?>
<svg width="17px" height="20px" viewBox="0 0 17 20" version="1.1" xmlns="http://www.w3.org/2000/svg" xmlns:xlink="http://www.w3.org/1999/xlink">
    <!-- Generator: Sketch 41.2 (35397) - http://www.bohemiancoding.com/sketch -->
    <title>pdf icon</title>
    <desc>Created with Sketch.</desc>
    <defs></defs>
    <g id="Page-1" stroke="none" stroke-width="1" fill="none" fill-rule="evenodd">
        <g id="landing-page" transform="translate(-703.000000, -3946.000000)" fill="#1373A0">
            <g id="When-you-enroll...Timeline" transform="translate(0.000000, 2728.000000)">
                <g id="First-day-after" transform="translate(440.000000, 981.000000)">
                    <g id="First-day" transform="translate(106.000000, 92.000000)">
                        <g id="link" transform="translate(0.000000, 140.000000)">
                            <g id="pdf-icon" transform="translate(157.000000, 5.000000)">
                                <g>
                                    <path d="M0.119959825,1.36313217 L0.144505855,18.7295665 C0.145285684,19.2812989 0.592772,19.7281531 1.14450486,19.7281531 L15.8465146,19.7281531 C16.3987993,19.7281531 16.8465146,19.2804379 16.8465146,18.7281531 L16.8465146,6.61668223 C16.8465146,6.3636979 16.7506289,6.12011564 16.5781781,5.93501624 L11.6823075,0.680052768 C11.4931508,0.477022183 11.2281357,0.36171875 10.950644,0.36171875 L1.11995883,0.36171875 C0.567122022,0.36171875 0.119178436,0.810295914 0.119959825,1.36313217 Z M10.5155615,2.36171875 L14.8465146,7.01033029 L14.8465146,17.7281531 L2.14309244,17.7281531 L2.12137324,2.36171875 L10.5155615,2.36171875 Z" id="Path-2"></path>
                                    <path d="M11.6707401,1.584375 L9.67074008,1.584375 L9.67074008,7.03259485 C9.67074008,7.5848796 10.1184553,8.03259485 10.6707401,8.03259485 L15.8988629,8.03259485 L15.8988629,6.03259485 L11.6707401,6.03259485 L11.6707401,1.584375 Z" id="Path-3"></path>
                                    <path d="M8.41515124,7.72587891 C8.41515124,7.68297423 8.41641209,7.63180246 8.42070028,7.48013994 C8.42803342,7.20849643 8.42926454,7.0187206 8.42121824,6.81534409 C8.38482844,5.89556431 8.20295582,5.34257812 7.51796083,5.34257812 C6.85167271,5.34257812 6.68781549,5.88808268 6.62845896,6.89026302 C6.61178183,7.1718411 6.60982238,7.44071023 6.61558565,7.78008766 C6.61615694,7.81305831 6.61615694,7.81305831 6.61669439,7.84288368 C6.63166421,8.67468709 6.96750356,10.0709728 7.50139051,11.040661 C8.01579075,9.56592087 8.41515124,8.21383624 8.41515124,7.72587891 Z M11.3301256,14.2524105 C12.0539933,14.4342715 12.7176523,14.4317754 13.1888326,14.2598249 C13.8164264,14.0307936 14.1237566,13.4195289 13.6233804,12.9220013 C13.1037377,12.4053169 10.5677122,12.3467854 8.81718313,12.7174806 C9.57870231,13.4551917 10.4784107,14.0384297 11.3301256,14.2524105 Z M3.42183978,15.1675165 C2.98344142,15.5720896 2.70702428,15.9574365 2.63092227,16.3072653 C2.51172403,16.8552005 2.88546653,17.2573242 3.44351774,17.2573242 C4.22847029,17.2573242 4.89643431,16.8084583 5.52723026,15.8001411 C5.77725889,15.4004743 6.17664514,14.5083407 6.59962382,13.4517198 C5.22795836,14.0003946 3.98603105,14.6468562 3.42183978,15.1675165 Z M7.50139051,11.040661 C7.53545655,11.1025345 7.57032892,11.1626711 7.60597571,11.2208134 C7.9273098,11.7449306 8.34576824,12.260804 8.81718313,12.7174806 C8.59647598,12.764218 8.38825526,12.8177784 8.1981365,12.878104 C7.66673661,13.0467196 7.12371028,13.242082 6.59962382,13.4517198 C6.9035868,12.6924058 7.21973341,11.848147 7.50139051,11.040661 Z M8.50058077,13.831271 C9.8737143,13.3955695 12.682169,13.3963419 12.918295,13.6311237 C12.7853889,13.4989742 12.8817098,13.3073967 12.8460118,13.3204241 C12.5807715,13.4172198 12.1167637,13.418965 11.5737886,13.2825505 C10.4830081,13.008508 9.17395643,11.8650827 8.4585038,10.698132 C7.96562208,9.89420912 7.62945412,8.54288506 7.61653249,7.82488976 C7.61599775,7.79521271 7.61599775,7.79521271 7.61544149,7.76310822 C7.61007545,7.44712234 7.61187781,7.19980828 7.62670962,6.94938681 C7.64265853,6.68010422 7.67277957,6.46292812 7.71479354,6.32305747 C7.72377682,6.29315083 7.68479994,6.34257812 7.51796083,6.34257812 C7.39239246,6.34257812 7.34257241,6.28879264 7.34920478,6.30895845 C7.38730236,6.42479465 7.41246393,6.6138464 7.42199996,6.85487676 C7.4289545,7.03065801 7.42784248,7.20207432 7.42106446,7.45315431 C7.41675595,7.60345721 7.41515124,7.66858455 7.41515124,7.72587891 C7.41515124,8.63330117 5.34678622,14.2030671 4.67945787,15.2697808 C4.58580965,15.419476 4.49592156,15.5490587 4.40875772,15.6605321 C5.24301186,15.0824812 6.93894362,14.3267856 8.50058077,13.831271 Z M4.1000273,15.9024054 C4.18223512,15.8265404 4.28619789,15.7454533 4.40875772,15.6605321 C4.20964046,15.9151824 4.02473965,16.07533 3.84170629,16.1648577 C3.91242078,16.0844964 3.99867541,15.9959373 4.1000273,15.9024054 Z" id="Path-4"></path>
                                </g>
                            </g>
                        </g>
                    </g>
                </g>
            </g>
        </g>
    </g>
</svg>